<svg width="149" height="40" viewBox="0 0 149 40" fill="none" xmlns="http://www.w3.org/2000/svg">
<path d="M4.24853 11.9688C3.12353 11.3687 2.27978 10.6562 1.99853 10.375C1.39853 11.5 1.93603 14.5938 2.27978 16C2.95478 17.875 2.74853 19.2812 2.56103 19.75L1.24853 21.7188C0.798529 22.3188 1.06103 22.6562 1.24853 22.75L3.02978 23.875C2.20478 24.925 3.12353 25.625 3.68603 25.8438C3.48862 26.2386 3.57699 26.5987 3.75966 26.8832C4.04665 27.3302 4.62216 27.4375 5.15333 27.4375H5.46728C5.27978 28.9375 5.84228 29.9688 6.59228 30.25C6.87693 30.3567 7.2713 30.3692 7.65727 30.3395C8.3809 30.2839 9.07482 29.9282 9.79546 29.8421C10.8034 29.7217 12.2244 29.7703 12.8735 29.875C13.311 30.0312 14.3735 31.0562 15.1235 33.9062C15.8735 36.7563 14.7485 37.4688 14.186 37.75L12.311 38.5H28.061C28.061 38.5 26.061 34.4062 25.2485 33.0625L21.1235 28.0938L18.4643 24.6524C18.1137 24.1987 17.6977 23.8013 17.2639 23.4264C16.2246 22.5283 15.0194 21.2014 14.561 19.75C14.2416 18.7386 13.436 18.1875 12.9673 18.0625L11.186 17.875C6.08603 17.875 4.43603 13.9375 4.24853 11.9688Z" fill="#45A7F5"/>
<path d="M4.81104 11.5L2.09229 9.625C2.31729 7.675 5.09229 4.84375 5.27979 4.65625C5.46729 5.03125 5.87354 5.71875 6.21729 6.0625C5.09229 7.6375 4.81104 10.3438 4.81104 11.5Z" fill="url(#paint0_linear_262_111)"/>
<path d="M8.46732 9.4375C7.49232 10.7125 5.99857 11.2812 5.37357 11.4062C5.22357 10.1312 6.18607 7.625 6.68607 6.53125C6.68607 7.58125 7.87357 8.90625 8.46732 9.4375Z" fill="url(#paint1_linear_262_111)"/>
<path d="M9.21729 1.9375C7.26729 2.9875 6.15479 3.875 5.84229 4.1875C7.04229 7.1875 10.0298 10.0625 11.3735 11.125C11.7485 11.2 13.3423 10.6562 14.0923 10.375C13.8673 8.725 13.936 7 13.9985 6.34375C11.4485 5.89375 9.74854 3.21875 9.21729 1.9375Z" fill="url(#paint2_linear_262_111)"/>
<path d="M8.93604 9.90625C7.13603 11.9312 5.62354 12.1875 5.09229 12.0625C5.46729 16.1875 8.65479 16.6562 9.21729 16.8438C11.186 17.5 13.436 16.5625 15.1235 19.375C16.5904 21.8197 17.2798 22.625 17.561 22.6562C17.061 20.75 15.7235 16.525 14.3735 14.875C13.0235 13.225 10.186 10.875 8.93604 9.90625Z" fill="url(#paint3_linear_262_111)"/>
<path d="M14.0923 5.6875C11.5423 5.1625 10.2173 2.84375 9.87354 1.75C11.1485 1.17721 13.3423 1.01134 14.2798 1C14.9548 3.1 14.436 5 14.0923 5.6875Z" fill="url(#paint4_linear_262_111)"/>
<path d="M14.561 6.25V10.0938C17.261 8.76247 19.686 4.47655 20.561 2.5C19.211 1.45 16.2485 1.0625 14.936 1C15.461 3.25 14.9048 5.4375 14.561 6.25Z" fill="url(#paint5_linear_262_111)"/>
<path d="M21.311 2.6875C20.486 4.7875 19.5298 5.9375 19.1548 6.25C20.2798 10.675 23.2485 13.0938 24.5923 13.75C26.6173 14.35 28.936 13 29.8423 12.25C28.9423 6.85 23.7798 3.625 21.311 2.6875Z" fill="url(#paint6_linear_262_111)"/>
<path d="M18.5212 23.0595C17.6789 17.4691 13.9411 13.1718 12.1235 11.6875C14.8235 11.6125 17.7485 8.46875 18.8735 6.90625C19.6985 9.90625 21.3423 12.0312 22.061 12.7188C18.8691 17.0652 18.3574 21.1247 18.5212 23.0595C18.5479 23.2363 18.5716 23.4144 18.5923 23.5938C18.5628 23.4402 18.5383 23.2614 18.5212 23.0595Z" fill="url(#paint7_linear_262_111)"/>
<path d="M20.6548 26.7812C17.2048 21.7563 20.5923 15.625 22.7173 13.1875L24.2173 14.5V17.875C20.9923 19.375 20.4985 24.4375 20.6548 26.7812Z" fill="url(#paint8_linear_262_111)"/>
<path d="M24.8735 18.0625L24.7798 14.875C27.3298 14.725 29.4048 13.625 30.1235 13.0938V15.4375C27.4235 17.8375 25.4985 18.1875 24.8735 18.0625Z" fill="url(#paint9_linear_262_111)"/>
<path d="M25.1548 22.6562C27.6298 20.9312 29.561 17.875 29.936 16.6562C27.986 18.5312 25.2798 18.8125 24.2173 18.625C21.2173 20.2 21.1548 25.2812 21.4985 27.625L25.436 32.4062C24.311 29.875 22.6798 24.3813 25.1548 22.6562Z" fill="url(#paint10_linear_262_111)"/>
<path d="M52.1155 11.45V28.25H49.8835V13.562H42.1555V28.25H39.9235V11.45H52.1155ZM62.1283 15.938C63.8083 15.938 65.2403 16.554 66.4243 17.786C67.6083 19.002 68.2003 20.49 68.2003 22.25C68.2003 24.01 67.6083 25.506 66.4243 26.738C65.2403 27.954 63.8083 28.562 62.1283 28.562C60.1443 28.562 58.6323 27.77 57.5923 26.186V33.05H55.5043V16.25H57.5923V18.314C58.6323 16.73 60.1443 15.938 62.1283 15.938ZM61.8643 26.546C63.0643 26.546 64.0723 26.138 64.8883 25.322C65.7043 24.49 66.1123 23.466 66.1123 22.25C66.1123 21.034 65.7043 20.018 64.8883 19.202C64.0723 18.37 63.0643 17.954 61.8643 17.954C60.6483 17.954 59.6323 18.37 58.8163 19.202C58.0003 20.018 57.5923 21.034 57.5923 22.25C57.5923 23.466 58.0003 24.49 58.8163 25.322C59.6323 26.138 60.6483 26.546 61.8643 26.546ZM80.6278 16.25H82.7158V28.25H80.6278V26.186C79.5878 27.77 78.0758 28.562 76.0918 28.562C74.4118 28.562 72.9798 27.954 71.7958 26.738C70.6118 25.506 70.0198 24.01 70.0198 22.25C70.0198 20.49 70.6118 19.002 71.7958 17.786C72.9798 16.554 74.4118 15.938 76.0918 15.938C78.0758 15.938 79.5878 16.73 80.6278 18.314V16.25ZM76.3558 26.546C77.5718 26.546 78.5878 26.138 79.4038 25.322C80.2198 24.49 80.6278 23.466 80.6278 22.25C80.6278 21.034 80.2198 20.018 79.4038 19.202C78.5878 18.37 77.5718 17.954 76.3558 17.954C75.1558 17.954 74.1478 18.37 73.3318 19.202C72.5158 20.018 72.1078 21.034 72.1078 22.25C72.1078 23.466 72.5158 24.49 73.3318 25.322C74.1478 26.138 75.1558 26.546 76.3558 26.546ZM96.0313 28.25H93.4393L87.9673 22.562V28.25H85.8793V16.25H87.9673V21.554L93.1513 16.25H95.8393L90.1033 22.058L96.0313 28.25ZM106.901 16.25V18.266H102.821V28.25H100.733V18.266H96.6291V16.25H106.901ZM117.443 16.25H119.123V28.25H117.059V19.826L110.411 28.25H108.731V16.25H110.795V24.674L117.443 16.25ZM132.453 28.25H129.861L124.389 22.562V28.25H122.301V16.25H124.389V21.554L129.573 16.25H132.261L126.525 22.058L132.453 28.25ZM143.229 16.25H145.317V28.25H143.229V26.186C142.189 27.77 140.677 28.562 138.693 28.562C137.013 28.562 135.581 27.954 134.397 26.738C133.213 25.506 132.621 24.01 132.621 22.25C132.621 20.49 133.213 19.002 134.397 17.786C135.581 16.554 137.013 15.938 138.693 15.938C140.677 15.938 142.189 16.73 143.229 18.314V16.25ZM138.957 26.546C140.173 26.546 141.189 26.138 142.005 25.322C142.821 24.49 143.229 23.466 143.229 22.25C143.229 21.034 142.821 20.018 142.005 19.202C141.189 18.37 140.173 17.954 138.957 17.954C137.757 17.954 136.749 18.37 135.933 19.202C135.117 20.018 134.709 21.034 134.709 22.25C134.709 23.466 135.117 24.49 135.933 25.322C136.749 26.138 137.757 26.546 138.957 26.546Z" fill="#002660"/>
<defs>
<linearGradient id="paint0_linear_262_111" x1="12.5" y1="17.5" x2="27" y2="3" gradientUnits="userSpaceOnUse">
<stop stop-color="#FC978F"/>
<stop offset="1" stop-color="#FCD98F"/>
</linearGradient>
<linearGradient id="paint1_linear_262_111" x1="12.5" y1="17.5" x2="27" y2="3" gradientUnits="userSpaceOnUse">
<stop stop-color="#FC978F"/>
<stop offset="1" stop-color="#FCD98F"/>
</linearGradient>
<linearGradient id="paint2_linear_262_111" x1="12.5" y1="17.5" x2="27" y2="3" gradientUnits="userSpaceOnUse">
<stop stop-color="#FC978F"/>
<stop offset="1" stop-color="#FCD98F"/>
</linearGradient>
<linearGradient id="paint3_linear_262_111" x1="12.5" y1="17.5" x2="27" y2="3" gradientUnits="userSpaceOnUse">
<stop stop-color="#FC978F"/>
<stop offset="1" stop-color="#FCD98F"/>
</linearGradient>
<linearGradient id="paint4_linear_262_111" x1="12.5" y1="17.5" x2="27" y2="3" gradientUnits="userSpaceOnUse">
<stop stop-color="#FC978F"/>
<stop offset="1" stop-color="#FCD98F"/>
</linearGradient>
<linearGradient id="paint5_linear_262_111" x1="12.5" y1="17.5" x2="27" y2="3" gradientUnits="userSpaceOnUse">
<stop stop-color="#FC978F"/>
<stop offset="1" stop-color="#FCD98F"/>
</linearGradient>
<linearGradient id="paint6_linear_262_111" x1="12.5" y1="17.5" x2="27" y2="3" gradientUnits="userSpaceOnUse">
<stop stop-color="#FC978F"/>
<stop offset="1" stop-color="#FCD98F"/>
</linearGradient>
<linearGradient id="paint7_linear_262_111" x1="12.5" y1="17.5" x2="27" y2="3" gradientUnits="userSpaceOnUse">
<stop stop-color="#FC978F"/>
<stop offset="1" stop-color="#FCD98F"/>
</linearGradient>
<linearGradient id="paint8_linear_262_111" x1="12.5" y1="17.5" x2="27" y2="3" gradientUnits="userSpaceOnUse">
<stop stop-color="#FC978F"/>
<stop offset="1" stop-color="#FCD98F"/>
</linearGradient>
<linearGradient id="paint9_linear_262_111" x1="12.5" y1="17.5" x2="27" y2="3" gradientUnits="userSpaceOnUse">
<stop stop-color="#FC978F"/>
<stop offset="1" stop-color="#FCD98F"/>
</linearGradient>
<linearGradient id="paint10_linear_262_111" x1="12.5" y1="17.5" x2="27" y2="3" gradientUnits="userSpaceOnUse">
<stop stop-color="#FC978F"/>
<stop offset="1" stop-color="#FCD98F"/>
</linearGradient>
</defs>
</svg>
